<svg width="278" height="64" viewBox="0 0 278 64" fill="none" xmlns="http://www.w3.org/2000/svg">
<path d="M73.6641 45V19.44H84.5001C85.6761 19.44 86.7561 19.68 87.7401 20.16C88.7241 20.64 89.5761 21.288 90.2961 22.104C91.0401 22.92 91.6161 23.832 92.0241 24.84C92.4321 25.848 92.6361 26.88 92.6361 27.936C92.6361 29.376 92.3001 30.744 91.6281 32.04C90.9561 33.336 90.0321 34.392 88.8561 35.208C87.6801 36.024 86.2881 36.432 84.6801 36.432H78.6321V45H73.6641ZM78.6321 32.076H84.3921C84.9921 32.076 85.5321 31.908 86.0121 31.572C86.4921 31.236 86.8761 30.756 87.1641 30.132C87.4521 29.484 87.5961 28.752 87.5961 27.936C87.5961 27.048 87.4281 26.292 87.0921 25.668C86.7801 25.044 86.3601 24.576 85.8321 24.264C85.3281 23.952 84.7761 23.796 84.1761 23.796H78.6321V32.076ZM96.0938 45V19.44H107.398C108.574 19.44 109.654 19.68 110.638 20.16C111.646 20.64 112.51 21.288 113.23 22.104C113.974 22.92 114.538 23.832 114.922 24.84C115.33 25.848 115.534 26.88 115.534 27.936C115.534 29.016 115.342 30.06 114.958 31.068C114.598 32.052 114.07 32.916 113.374 33.66C112.678 34.404 111.862 34.98 110.926 35.388L116.758 45H111.286L106.03 36.432H101.062V45H96.0938ZM101.062 32.076H107.29C107.914 32.076 108.466 31.896 108.946 31.536C109.426 31.152 109.81 30.648 110.098 30.024C110.386 29.4 110.53 28.704 110.53 27.936C110.53 27.12 110.362 26.412 110.026 25.812C109.69 25.188 109.258 24.696 108.73 24.336C108.226 23.976 107.674 23.796 107.074 23.796H101.062V32.076ZM130.802 45.18C128.93 45.18 127.226 44.82 125.69 44.1C124.178 43.38 122.87 42.408 121.766 41.184C120.686 39.936 119.846 38.544 119.246 37.008C118.646 35.448 118.346 33.852 118.346 32.22C118.346 30.516 118.658 28.896 119.282 27.36C119.93 25.8 120.806 24.42 121.91 23.22C123.038 21.996 124.358 21.036 125.87 20.34C127.406 19.62 129.086 19.26 130.91 19.26C132.758 19.26 134.438 19.632 135.95 20.376C137.486 21.12 138.794 22.116 139.874 23.364C140.954 24.612 141.794 26.004 142.394 27.54C142.994 29.076 143.294 30.66 143.294 32.292C143.294 33.972 142.982 35.592 142.358 37.152C141.734 38.688 140.858 40.068 139.73 41.292C138.626 42.492 137.306 43.44 135.77 44.136C134.258 44.832 132.602 45.18 130.802 45.18ZM123.386 32.22C123.386 33.324 123.554 34.392 123.89 35.424C124.226 36.456 124.706 37.38 125.33 38.196C125.978 38.988 126.758 39.624 127.67 40.104C128.606 40.56 129.662 40.788 130.838 40.788C132.038 40.788 133.106 40.548 134.042 40.068C134.978 39.564 135.758 38.904 136.382 38.088C137.006 37.248 137.474 36.324 137.786 35.316C138.122 34.284 138.29 33.252 138.29 32.22C138.29 31.116 138.11 30.06 137.75 29.052C137.414 28.02 136.922 27.108 136.274 26.316C135.65 25.5 134.87 24.864 133.934 24.408C133.022 23.928 131.99 23.688 130.838 23.688C129.614 23.688 128.534 23.94 127.598 24.444C126.686 24.924 125.918 25.572 125.294 26.388C124.67 27.204 124.19 28.116 123.854 29.124C123.542 30.132 123.386 31.164 123.386 32.22ZM149.769 19.44L156.105 28.872L162.405 19.44H167.805L158.949 32.4L167.517 45H162.117L156.105 35.928L150.057 45H144.621L153.189 32.4L144.333 19.44H149.769ZM181.287 45.18C179.415 45.18 177.711 44.82 176.175 44.1C174.663 43.38 173.355 42.408 172.251 41.184C171.171 39.936 170.331 38.544 169.731 37.008C169.131 35.448 168.831 33.852 168.831 32.22C168.831 30.516 169.143 28.896 169.767 27.36C170.415 25.8 171.291 24.42 172.395 23.22C173.523 21.996 174.843 21.036 176.355 20.34C177.891 19.62 179.571 19.26 181.395 19.26C183.243 19.26 184.923 19.632 186.435 20.376C187.971 21.12 189.279 22.116 190.359 23.364C191.439 24.612 192.279 26.004 192.879 27.54C193.479 29.076 193.779 30.66 193.779 32.292C193.779 33.972 193.467 35.592 192.843 37.152C192.219 38.688 191.343 40.068 190.215 41.292C189.111 42.492 187.791 43.44 186.255 44.136C184.743 44.832 183.087 45.18 181.287 45.18ZM173.871 32.22C173.871 33.324 174.039 34.392 174.375 35.424C174.711 36.456 175.191 37.38 175.815 38.196C176.463 38.988 177.243 39.624 178.155 40.104C179.091 40.56 180.147 40.788 181.323 40.788C182.523 40.788 183.591 40.548 184.527 40.068C185.463 39.564 186.243 38.904 186.867 38.088C187.491 37.248 187.959 36.324 188.271 35.316C188.607 34.284 188.775 33.252 188.775 32.22C188.775 31.116 188.595 30.06 188.235 29.052C187.899 28.02 187.407 27.108 186.759 26.316C186.135 25.5 185.355 24.864 184.419 24.408C183.507 23.928 182.475 23.688 181.323 23.688C180.099 23.688 179.019 23.94 178.083 24.444C177.171 24.924 176.403 25.572 175.779 26.388C175.155 27.204 174.675 28.116 174.339 29.124C174.027 30.132 173.871 31.164 173.871 32.22ZM213.862 45V23.796H206.374L206.23 28.116C206.11 31.5 205.834 34.296 205.402 36.504C204.97 38.712 204.346 40.452 203.53 41.724C202.714 42.972 201.682 43.86 200.434 44.388C199.21 44.892 197.734 45.144 196.006 45.144V40.86C196.894 40.86 197.662 40.668 198.31 40.284C198.958 39.9 199.498 39.204 199.93 38.196C200.386 37.188 200.746 35.76 201.01 33.912C201.274 32.064 201.454 29.676 201.55 26.748L201.802 19.44H218.794V45H213.862ZM235.076 45.18C233.204 45.18 231.5 44.82 229.964 44.1C228.452 43.38 227.144 42.408 226.04 41.184C224.96 39.936 224.12 38.544 223.52 37.008C222.92 35.448 222.62 33.852 222.62 32.22C222.62 30.516 222.932 28.896 223.556 27.36C224.204 25.8 225.08 24.42 226.184 23.22C227.312 21.996 228.632 21.036 230.144 20.34C231.68 19.62 233.36 19.26 235.184 19.26C237.032 19.26 238.712 19.632 240.224 20.376C241.76 21.12 243.068 22.116 244.148 23.364C245.228 24.612 246.068 26.004 246.668 27.54C247.268 29.076 247.568 30.66 247.568 32.292C247.568 33.972 247.256 35.592 246.632 37.152C246.008 38.688 245.132 40.068 244.004 41.292C242.9 42.492 241.58 43.44 240.044 44.136C238.532 44.832 236.876 45.18 235.076 45.18ZM227.66 32.22C227.66 33.324 227.828 34.392 228.164 35.424C228.5 36.456 228.98 37.38 229.604 38.196C230.252 38.988 231.032 39.624 231.944 40.104C232.88 40.56 233.936 40.788 235.112 40.788C236.312 40.788 237.38 40.548 238.316 40.068C239.252 39.564 240.032 38.904 240.656 38.088C241.28 37.248 241.748 36.324 242.06 35.316C242.396 34.284 242.564 33.252 242.564 32.22C242.564 31.116 242.384 30.06 242.024 29.052C241.688 28.02 241.196 27.108 240.548 26.316C239.924 25.5 239.144 24.864 238.208 24.408C237.296 23.928 236.264 23.688 235.112 23.688C233.888 23.688 232.808 23.94 231.872 24.444C230.96 24.924 230.192 25.572 229.568 26.388C228.944 27.204 228.464 28.116 228.128 29.124C227.816 30.132 227.66 31.164 227.66 32.22ZM249.795 49.896V40.644H251.163C251.811 40.644 252.375 40.392 252.855 39.888C253.335 39.384 253.743 38.58 254.079 37.476C254.415 36.372 254.679 34.944 254.871 33.192C255.087 31.416 255.231 29.268 255.303 26.748L255.519 19.44H272.547V40.644H275.931V49.896H271.575V45H254.151V49.896H249.795ZM257.103 40.644H267.615V23.796H260.019L259.947 27.396C259.875 29.892 259.731 32.016 259.515 33.768C259.323 35.52 259.035 36.96 258.651 38.088C258.291 39.216 257.775 40.068 257.103 40.644Z" fill="black"/>
<path d="M39.5 2.5L36.5 6L32 10.6667L24 2.66669" stroke="#0D4CD3" stroke-width="4.416" stroke-miterlimit="10"/>
<path d="M24 61L32 53L35.5 56.5L40 61" stroke="#0D4CD3" stroke-width="4.416" stroke-miterlimit="10"/>
<path d="M32 10.6667V53.3333" stroke="#0D4CD3" stroke-width="4.416" stroke-miterlimit="10"/>
<path d="M32 21.3333C33.4728 21.3333 34.6667 20.1394 34.6667 18.6667C34.6667 17.1939 33.4728 16 32 16C30.5273 16 29.3333 17.1939 29.3333 18.6667C29.3333 20.1394 30.5273 21.3333 32 21.3333Z" stroke="#0D4CD3" stroke-width="4.416" stroke-miterlimit="10"/>
<path d="M33.8164 42.3733C37.3985 42.7466 44.0031 37.8126 44.0031 32.1866C44.0031 26.5607 39.3065 22 33.6805 22C30.2344 22 33.7342 26.6866 32.2343 32.1866C33.2342 37.6866 30.2343 42 33.8164 42.3733Z" stroke="#0D4CD3" stroke-width="3" stroke-miterlimit="10"/>
<path d="M57.9066 31.5C57.9095 30.0948 57.7755 28.6926 57.5066 27.3133L63.08 24.1133L55.4266 10.78L49.88 13.98C47.7358 12.163 44.6509 10.4332 41.9999 9.5V2.5H38.9999L36.9999 5L34.9999 7.5L32 10.9228C32 10.9228 32 9.5 32 11.3455L32 10.5L32 26.5C32 29.5 32 31.5 31.9999 34.5L32 38.5L31.9999 42.5V47C31.9999 48.9133 31.4999 52.1133 32.9999 54.5L35.9999 57.5L38.9999 60.5H42.6266V55.5V54.5V53.0733C45.2777 52.1401 47.7358 50.7303 49.88 48.9133L55.4266 52.1133L63.08 38.78L57.5066 35.58C57.7687 34.2357 57.9026 32.8696 57.9066 31.5Z" stroke="#0D4CD3" stroke-width="4" stroke-miterlimit="10"/>
<path d="M32 48C33.4728 48 34.6667 46.8061 34.6667 45.3333C34.6667 43.8606 33.4728 42.6667 32 42.6667C30.5273 42.6667 29.3333 43.8606 29.3333 45.3333C29.3333 46.8061 30.5273 48 32 48Z" stroke="#0D4CD3" stroke-width="4.416" stroke-miterlimit="10"/>
<path d="M10.5867 10.4L13.52 21.3333L2.58667 24.2667" stroke="#0D4CD3" stroke-width="4.416" stroke-miterlimit="10"/>
<path d="M14 21L32 32" stroke="#0D4CD3" stroke-width="4.416" stroke-miterlimit="10"/>
<path d="M20.4533 28C21.9261 28 23.12 26.8061 23.12 25.3333C23.12 23.8606 21.9261 22.6667 20.4533 22.6667C18.9806 22.6667 17.7867 23.8606 17.7867 25.3333C17.7867 26.8061 18.9806 28 20.4533 28Z" stroke="#0D4CD3" stroke-width="4.416" stroke-miterlimit="10"/>
<path d="M10.5867 53.6L13.52 42.6667L2.58667 39.7333" stroke="#0D4CD3" stroke-width="4.416" stroke-miterlimit="10"/>
<path d="M32 32L14 43" stroke="#0D4CD3" stroke-width="4.416" stroke-miterlimit="10"/>
<path d="M20.4533 41.3333C21.9261 41.3333 23.12 40.1394 23.12 38.6667C23.12 37.1939 21.9261 36 20.4533 36C18.9806 36 17.7867 37.1939 17.7867 38.6667C17.7867 40.1394 18.9806 41.3333 20.4533 41.3333Z" stroke="#0D4CD3" stroke-width="4.416" stroke-miterlimit="10"/>
<path d="M5.33337 32H10.6667" stroke="#0D4CD3" stroke-width="4.416" stroke-miterlimit="10"/>
<path d="M18.6667 55.0933L21.3333 50.48" stroke="#0D4CD3" stroke-width="4.416" stroke-miterlimit="10"/>
<path d="M21.3333 13.52L18.6667 8.90668" stroke="#0D4CD3" stroke-width="4.416" stroke-miterlimit="10"/>
</svg>
