<?xml version="1.0" standalone="no"?>
<!DOCTYPE svg PUBLIC "-//W3C//DTD SVG 20010904//EN"
 "http://www.w3.org/TR/2001/REC-SVG-20010904/DTD/svg10.dtd">
<svg version="1.0" xmlns="http://www.w3.org/2000/svg"
 width="1200.000000pt" height="1200.000000pt" viewBox="0 0 1200.000000 1200.000000"
 preserveAspectRatio="xMidYMid meet">

<g transform="translate(0.000000,1200.000000) scale(0.100000,-0.100000)"
fill="#fe3d14" stroke="none">
<path d="M5750 10990 c-340 -20 -636 -66 -970 -150 -1531 -385 -2811 -1508
-3400 -2984 -407 -1020 -467 -2155 -169 -3213 295 -1052 935 -1984 1813 -2641
600 -449 1279 -753 2013 -902 546 -110 1179 -124 1742 -39 807 122 1590 453
2246 947 358 271 717 629 987 987 806 1069 1149 2428 948 3757 -138 911 -513
1738 -1119 2468 -123 148 -453 478 -601 602 -733 610 -1583 992 -2500 1122
-317 45 -701 63 -990 46z m1948 -4987 l-3 -2968 -517 -3 -518 -2 0 2566 0
2566 -367 -5 c-392 -5 -441 -10 -628 -63 -103 -29 -247 -95 -332 -151 -32 -21
-93 -71 -136 -112 -127 -122 -205 -256 -255 -441 -23 -87 -26 -113 -26 -300
-1 -216 7 -282 50 -450 30 -113 122 -308 190 -400 166 -227 341 -373 884 -740
173 -117 319 -216 323 -220 5 -4 -329 -511 -741 -1126 l-749 -1119 -566 -3
-566 -2 272 405 c150 223 453 674 674 1003 l401 598 -131 100 c-696 525 -1004
1010 -1068 1684 -14 149 -7 422 16 564 124 799 683 1341 1568 1520 108 22 293
48 422 59 22 2 437 4 923 5 l882 2 -2 -2967z"/>
</g>
</svg>
